<?xml version="1.0" encoding="utf-8"?>
<!-- Generator: Adobe Illustrator 24.0.3, SVG Export Plug-In . SVG Version: 6.00 Build 0)  -->
<svg version="1.1" id="Layer_1" xmlns="http://www.w3.org/2000/svg" xmlns:xlink="http://www.w3.org/1999/xlink" x="0px" y="0px"
	 viewBox="0 0 299 363" style="enable-background:new 0 0 299 363;" xml:space="preserve">
<path d="M237.4,222.5c3.3-1.5,4.2-2.9,3.8-6.5c-0.3-1.9-0.6-3.6-0.9-5.4c-0.4-2.9,0.3-5.5,2.5-7.4c2.2-1.9,4.5-3.6,6.8-5.2
	c1.2-0.9,2.6-1.5,3.9-2.2c3.8-2,4.9-5.5,3.2-9.6c-1.2-2.5-2.8-4.9-4.5-7c-3.6-4.2-7.4-8.1-11.2-12.2c-2.8-2.9-4.4-6.4-5.1-10.2
	c-1.5-6.5-1.6-13.2-0.7-19.8c1.3-9.6-0.3-18.8-3.3-27.9c-6-17-16-31.3-30.5-42.2c-12.2-9.2-25.7-14.4-40.7-15.9
	c-23.1-2.2-45.5,0.6-66.9,9.9C79.5,67.1,67.1,76,57.5,88.2c-11.8,14.8-17.2,31.7-16,50.6c0.4,7.1,0.7,14.1,1.6,21.2
	c1.6,11.5,4.7,22.5,7.9,33.8c5.2,18,11.5,35.8,18.6,53.2c0.6,1.5,1,2.9,0.7,4.5c-1.6,9-3.1,17.9-4.7,26.9c-0.6,3.2-1.3,6.5-2,9.7
	c-0.6,2.5-0.4,2.6,1.9,3.9c7.3,4.2,14.7,7.9,22.5,10.8c11.9,4.7,24.3,7.6,37.1,8.9c3.8,0.4,7.7,0.6,11.6,0.7c4.8,0.1,9.7,0,14.5,0.1
	c7.4,0.1,14.5-1.2,21.8-2.3c2-0.3,2.5-1,2.2-3.1c-1.6-12.1,2-23,7.9-33.3c1.7-3.2,4.4-5.1,8.1-5.7c3.2-0.4,6.3-1,9.4-1.3
	c6.1-0.6,12.2-1,18.5-1.6c2.5-0.3,5.1-0.9,7.4-1.6c6.3-1.9,8.7-6.4,7-12.5c-0.6-2.3-1.6-4.5-2.8-6.5c-1-1.7-0.9-3.5,0.3-4.8
	c1.3-1.5,2.6-3.2,4.4-4.1c5.4-2.9,4.8-7.7,1.7-11.2c-0.3-0.4-0.6-0.9-1.2-1.5C236.6,222.9,237.1,222.6,237.4,222.5z"/>
</svg>
