<svg xmlns="http://www.w3.org/2000/svg" viewBox="0 0 578.21 576.71"><defs><style>.cls-1{opacity:0.6;font-size:39.9px;fill:#fff;font-family:RobotoCondensed-Italic, Roboto Condensed;font-style:italic;}</style></defs><title>bad_m</title><g id="Layer_2" data-name="Layer 2"><g id="Layer_1-2" data-name="Layer 1"><text class="cls-1" transform="matrix(-0.56, -0.81, 0.82, -0.57, 146.74, 397.91)">В</text><text class="cls-1" transform="matrix(-0.46, -0.87, 0.88, -0.47, 134.87, 380.83)">С</text><text class="cls-1" transform="matrix(-0.36, -0.92, 0.93, -0.37, 124.77, 361.71)">Ё</text><text class="cls-1" transform="matrix(-0.29, -0.94, 0.96, -0.3, 117.92, 343.87)"> </text><text class="cls-1" transform="matrix(-0.24, -0.96, 0.97, -0.25, 115.23, 335.16)"> </text><text class="cls-1" transform="matrix(-0.19, -0.97, 0.98, -0.2, 112.99, 326.32)"> </text><text class="cls-1" transform="matrix(-0.11, -0.98, 0.99, -0.11, 110.9, 317.72)">П</text><text class="cls-1" transform="matrix(0.02, -0.99, 1, 0.02, 108.36, 294.27)">Л</text><text class="cls-1" transform="matrix(0.15, -0.98, 0.99, 0.15, 108.93, 270.94)">О</text><text class="cls-1" transform="matrix(0.27, -0.95, 0.96, 0.27, 112.42, 248.79)">Х</text><text class="cls-1" transform="matrix(0.38, -0.91, 0.92, 0.39, 117.94, 229.07)">О</text><text class="cls-1" transform="matrix(0.47, -0.87, 0.88, 0.48, 127.15, 207.93)"> </text><text class="cls-1" transform="matrix(0.51, -0.85, 0.86, 0.51, 131.46, 199.91)"> </text><text class="cls-1" transform="matrix(0.55, -0.82, 0.83, 0.56, 136.13, 192.13)"> </text><text class="cls-1" transform="matrix(0.62, -0.77, 0.78, 0.63, 140.87, 184.59)">В</text><text class="cls-1" transform="matrix(0.71, -0.69, 0.7, 0.71, 153.82, 168.37)">С</text><text class="cls-1" transform="matrix(0.78, -0.6, 0.61, 0.79, 169.29, 153.32)">Ё</text><text class="cls-1" transform="matrix(0.83, -0.54, 0.55, 0.84, 184.53, 141.75)"> </text><text class="cls-1" transform="matrix(0.87, -0.46, 0.47, 0.88, 191.73, 136.61)">П</text><text class="cls-1" transform="matrix(0.92, -0.35, 0.35, 0.94, 212.52, 125.54)">Л</text><text class="cls-1" transform="matrix(0.96, -0.23, 0.23, 0.97, 234.45, 117.33)">О</text><text class="cls-1" transform="matrix(0.98, -0.11, 0.11, 0.99, 256.31, 112.22)">Х</text><text class="cls-1" transform="matrix(0.99, 0.01, -0.01, 1, 276.65, 109.83)">О</text><text class="cls-1" transform="matrix(0.98, 0.09, -0.09, 1, 299.68, 110.28)"> </text><text class="cls-1" transform="matrix(0.98, 0.14, -0.14, 0.99, 308.73, 111.14)"> </text><text class="cls-1" transform="matrix(0.97, 0.19, -0.19, 0.98, 317.78, 112.47)"> </text><text class="cls-1" transform="matrix(0.95, 0.27, -0.27, 0.96, 326.56, 113.95)">В</text><text class="cls-1" transform="matrix(0.91, 0.38, -0.38, 0.92, 346.57, 119.6)">С</text><text class="cls-1" transform="matrix(0.87, 0.48, -0.48, 0.88, 366.48, 127.93)">Ё</text><text class="cls-1" transform="matrix(0.83, 0.54, -0.55, 0.84, 383.2, 137.33)"> </text><text class="cls-1" transform="matrix(0.8, 0.58, -0.59, 0.81, 390.83, 142.32)"> </text><text class="cls-1" transform="matrix(0.77, 0.62, -0.63, 0.78, 398.21, 147.68)"> </text><text class="cls-1" transform="matrix(0.71, 0.69, -0.69, 0.72, 405.33, 152.98)">П</text><text class="cls-1" transform="matrix(0.62, 0.77, -0.78, 0.62, 422.27, 169.32)">Л</text><text class="cls-1" transform="matrix(0.51, 0.84, -0.85, 0.52, 436.88, 187.64)">О</text><text class="cls-1" transform="matrix(0.41, 0.9, -0.91, 0.41, 448.51, 206.82)">Х</text><text class="cls-1" transform="matrix(0.3, 0.94, -0.95, 0.3, 457.09, 225.41)">О</text><text class="cls-1" transform="matrix(0.22, 0.96, -0.98, 0.22, 463.8, 247.45)"> </text><text class="cls-1" transform="matrix(0.17, 0.97, -0.99, 0.17, 465.8, 256.36)"> </text><text class="cls-1" transform="matrix(0.12, 0.98, -0.99, 0.12, 467.33, 265.32)"> </text><text class="cls-1" transform="matrix(0.03, 0.99, -1, 0.04, 468.64, 274.12)">В</text><text class="cls-1" transform="matrix(-0.08, 0.98, -1, -0.08, 469.42, 294.87)">С</text><text class="cls-1" transform="matrix(-0.2, 0.97, -0.98, -0.2, 467.54, 316.37)">Ё</text><text class="cls-1" transform="matrix(-0.27, 0.95, -0.96, -0.28, 463.55, 335.06)"> </text><text class="cls-1" transform="matrix(-0.32, 0.93, -0.95, -0.33, 461.02, 343.84)"> </text><text class="cls-1" transform="matrix(-0.37, 0.92, -0.93, -0.37, 458.07, 352.43)"> </text><text class="cls-1" transform="matrix(-0.44, 0.88, -0.89, -0.45, 454.98, 360.72)">П</text><text class="cls-1" transform="matrix(-0.56, 0.81, -0.82, -0.57, 444.35, 381.72)">Л</text><text class="cls-1" transform="matrix(-0.66, 0.73, -0.74, -0.67, 431.03, 400.94)">О</text><text class="cls-1" transform="matrix(-0.75, 0.64, -0.65, -0.76, 415.94, 417.54)">Х</text><text class="cls-1" transform="matrix(-0.82, 0.55, -0.56, -0.83, 400.5, 430.98)">О</text><text class="cls-1" transform="matrix(-0.87, 0.47, -0.48, -0.88, 381.2, 443.53)"> </text><text class="cls-1" transform="matrix(-0.89, 0.43, -0.43, -0.9, 373.21, 447.89)"> </text><text class="cls-1" transform="matrix(-0.91, 0.38, -0.39, -0.92, 365, 451.85)"> </text><text class="cls-1" transform="matrix(-0.94, 0.31, -0.31, -0.95, 356.91, 455.53)">В</text><text class="cls-1" transform="matrix(-0.97, 0.2, -0.2, -0.98, 337.18, 462.02)">С</text><text class="cls-1" transform="matrix(-0.98, 0.09, -0.09, -1, 315.95, 466.24)">Ё</text><text class="cls-1" transform="matrix(-0.99, 0.01, -0.01, -1, 296.91, 467.71)"> </text><text class="cls-1" transform="matrix(-0.99, -0.04, 0.04, -1, 287.76, 467.8)"> </text><text class="cls-1" transform="matrix(-0.98, -0.09, 0.09, -1, 278.66, 467.43)"> </text><text class="cls-1" transform="matrix(-0.97, -0.18, 0.18, -0.98, 269.8, 466.96)">П</text><text class="cls-1" transform="matrix(-0.94, -0.3, 0.31, -0.95, 246.62, 462.73)">Л</text><text class="cls-1" transform="matrix(-0.89, -0.42, 0.42, -0.91, 224.34, 455.59)">О</text><text class="cls-1" transform="matrix(-0.84, -0.52, 0.52, -0.85, 203.98, 446.09)">Х</text><text class="cls-1" transform="matrix(-0.77, -0.61, 0.62, -0.78, 186.49, 435.45)">О</text></g></g></svg>