<svg xmlns="http://www.w3.org/2000/svg" viewBox="0 0 779.96 779.07"><defs><style>.cls-1{font-size:51.87px;fill:#fff;font-family:RobotoCondensed-Italic, Roboto Condensed;font-style:italic;}</style></defs><title>bad_l</title><g id="Layer_2" data-name="Layer 2"><g id="Layer_1-2" data-name="Layer 1"><text class="cls-1" transform="matrix(-0.42, -0.89, 0.91, -0.42, 183.68, 499.01)">В</text><text class="cls-1" transform="matrix(-0.31, -0.94, 0.95, -0.32, 172.19, 474.59)">С</text><text class="cls-1" transform="matrix(-0.21, -0.97, 0.98, -0.21, 163.4, 447.89)">Ё</text><text class="cls-1" transform="matrix(-0.13, -0.98, 0.99, -0.13, 158.48, 423.53)"> </text><text class="cls-1" transform="matrix(-0.08, -0.98, 1, -0.08, 156.93, 411.77)"> </text><text class="cls-1" transform="matrix(-0.03, -0.99, 1, -0.03, 155.98, 399.96)"> </text><text class="cls-1" transform="matrix(0.06, -0.99, 1, 0.06, 155.17, 388.43)">П</text><text class="cls-1" transform="matrix(0.19, -0.97, 0.98, 0.19, 157, 357.88)">Л</text><text class="cls-1" transform="matrix(0.31, -0.94, 0.95, 0.32, 162.81, 328.04)">О</text><text class="cls-1" transform="matrix(0.43, -0.89, 0.9, 0.43, 172.1, 300.41)">Х</text><text class="cls-1" transform="matrix(0.53, -0.83, 0.84, 0.54, 183.44, 276.37)">О</text><text class="cls-1" transform="matrix(0.61, -0.78, 0.79, 0.62, 199.78, 251.35)"> </text><text class="cls-1" transform="matrix(0.64, -0.75, 0.76, 0.65, 207.11, 241.94)"> </text><text class="cls-1" transform="matrix(0.68, -0.72, 0.73, 0.69, 214.81, 232.94)"> </text><text class="cls-1" transform="matrix(0.74, -0.66, 0.66, 0.75, 222.53, 224.3)">В</text><text class="cls-1" transform="matrix(0.81, -0.56, 0.57, 0.82, 242.64, 206.33)">С</text><text class="cls-1" transform="matrix(0.87, -0.47, 0.47, 0.88, 265.75, 190.4)">Ё</text><text class="cls-1" transform="matrix(0.9, -0.4, 0.4, 0.92, 287.8, 178.89)"> </text><text class="cls-1" transform="matrix(0.94, -0.31, 0.32, 0.95, 298.19, 173.85)">П</text><text class="cls-1" transform="matrix(0.97, -0.19, 0.19, 0.98, 327.25, 164.18)">Л</text><text class="cls-1" transform="matrix(0.99, -0.06, 0.06, 1, 357.1, 158.44)">О</text><text class="cls-1" transform="matrix(0.99, 0.06, -0.06, 1, 386.24, 156.64)">Х</text><text class="cls-1" transform="matrix(0.97, 0.17, -0.17, 0.98, 412.87, 158)">О</text><text class="cls-1" transform="matrix(0.95, 0.26, -0.26, 0.97, 442.29, 163.6)"> </text><text class="cls-1" transform="matrix(0.94, 0.3, -0.31, 0.95, 453.71, 166.67)"> </text><text class="cls-1" transform="matrix(0.92, 0.35, -0.36, 0.93, 465.02, 170.33)"> </text><text class="cls-1" transform="matrix(0.89, 0.43, -0.43, 0.9, 475.94, 174.14)">В</text><text class="cls-1" transform="matrix(0.84, 0.53, -0.53, 0.85, 500.36, 185.74)">С</text><text class="cls-1" transform="matrix(0.77, 0.61, -0.62, 0.78, 524.11, 200.78)">Ё</text><text class="cls-1" transform="matrix(0.72, 0.67, -0.68, 0.73, 543.45, 216.44)"> </text><text class="cls-1" transform="matrix(0.69, 0.71, -0.71, 0.7, 552.15, 224.5)"> </text><text class="cls-1" transform="matrix(0.65, 0.74, -0.75, 0.66, 560.44, 232.97)"> </text><text class="cls-1" transform="matrix(0.59, 0.79, -0.81, 0.59, 568.41, 241.31)">П</text><text class="cls-1" transform="matrix(0.48, 0.86, -0.88, 0.48, 586.6, 265.99)">Л</text><text class="cls-1" transform="matrix(0.36, 0.92, -0.93, 0.37, 601.31, 292.61)">О</text><text class="cls-1" transform="matrix(0.25, 0.95, -0.97, 0.26, 612.04, 319.72)">Х</text><text class="cls-1" transform="matrix(0.14, 0.98, -0.99, 0.14, 619, 345.46)">О</text><text class="cls-1" transform="matrix(0.05, 0.99, -1, 0.05, 622.81, 375.18)"> </text><text class="cls-1" transform="matrix(0, 0.99, -1, 0, 623.42, 387.02)"> </text><text class="cls-1" transform="matrix(-0.05, 0.99, -1, -0.05, 623.43, 398.89)"> </text><text class="cls-1" transform="matrix(-0.13, 0.98, -0.99, -0.13, 623.19, 410.45)">В</text><text class="cls-1" transform="matrix(-0.25, 0.96, -0.97, -0.25, 619.67, 437.18)">С</text><text class="cls-1" transform="matrix(-0.36, 0.92, -0.93, -0.36, 612.56, 464.37)">Ё</text><text class="cls-1" transform="matrix(-0.43, 0.89, -0.9, -0.43, 603.37, 487.45)"> </text><text class="cls-1" transform="matrix(-0.47, 0.87, -0.88, -0.48, 598.24, 498.12)"> </text><text class="cls-1" transform="matrix(-0.52, 0.84, -0.85, -0.52, 592.55, 508.52)"> </text><text class="cls-1" transform="matrix(-0.58, 0.8, -0.81, -0.59, 586.72, 518.54)">П</text><text class="cls-1" transform="matrix(-0.69, 0.71, -0.71, -0.7, 568.58, 543.07)">Л</text><text class="cls-1" transform="matrix(-0.78, 0.61, -0.62, -0.79, 547.32, 564.79)">О</text><text class="cls-1" transform="matrix(-0.85, 0.51, -0.52, -0.86, 524.36, 582.78)">Х</text><text class="cls-1" transform="matrix(-0.9, 0.4, -0.41, -0.91, 501.65, 596.63)">О</text><text class="cls-1" transform="matrix(-0.93, 0.32, -0.33, -0.95, 474.16, 608.51)"> </text><text class="cls-1" transform="matrix(-0.95, 0.27, -0.28, -0.96, 462.94, 612.37)"> </text><text class="cls-1" transform="matrix(-0.96, 0.23, -0.23, -0.97, 451.54, 615.65)"> </text><text class="cls-1" transform="matrix(-0.98, 0.14, -0.15, -0.99, 440.37, 618.6)">В</text><text class="cls-1" transform="matrix(-0.99, 0.03, -0.03, -1, 413.67, 622.62)">С</text><text class="cls-1" transform="matrix(-0.98, -0.08, 0.08, -1, 385.58, 623.39)">Ё</text><text class="cls-1" transform="matrix(-0.97, -0.16, 0.16, -0.99, 360.77, 621.11)"> </text><text class="cls-1" transform="matrix(-0.97, -0.21, 0.21, -0.98, 349.07, 619.23)"> </text><text class="cls-1" transform="matrix(-0.95, -0.25, 0.26, -0.97, 337.48, 616.76)"> </text><text class="cls-1" transform="matrix(-0.93, -0.34, 0.34, -0.94, 326.22, 614.23)">П</text><text class="cls-1" transform="matrix(-0.88, -0.45, 0.46, -0.89, 297.43, 603.74)">Л</text><text class="cls-1" transform="matrix(-0.81, -0.56, 0.57, -0.82, 270.43, 589.72)">О</text><text class="cls-1" transform="matrix(-0.74, -0.65, 0.66, -0.75, 246.42, 573.1)">Х</text><text class="cls-1" transform="matrix(-0.66, -0.73, 0.74, -0.67, 226.3, 555.61)">О</text></g></g></svg>