<svg xmlns="http://www.w3.org/2000/svg" viewBox="0 0 386.63 385.05"><defs><style>.cls-1{opacity:0.39;font-size:28.37px;fill:#fff;font-family:RobotoCondensed-Italic, Roboto Condensed;font-style:italic;}</style></defs><title>bad_s</title><g id="Layer_2" data-name="Layer 2"><g id="Layer_1-2" data-name="Layer 1"><text class="cls-1" transform="matrix(-0.68, -0.71, 0.72, -0.69, 105.33, 285.13)">В</text><text class="cls-1" transform="matrix(-0.59, -0.79, 0.8, -0.6, 95.12, 274.44)">С</text><text class="cls-1" transform="matrix(-0.5, -0.85, 0.86, -0.51, 85.92, 262.12)">Ё</text><text class="cls-1" transform="matrix(-0.43, -0.89, 0.9, -0.44, 79.15, 250.33)"> </text><text class="cls-1" transform="matrix(-0.39, -0.91, 0.92, -0.39, 76.29, 244.48)"> </text><text class="cls-1" transform="matrix(-0.34, -0.93, 0.94, -0.35, 73.75, 238.54)"> </text><text class="cls-1" transform="matrix(-0.26, -0.95, 0.97, -0.26, 71.33, 232.68)">П</text><text class="cls-1" transform="matrix(-0.13, -0.98, 0.99, -0.13, 66.98, 216.54)">Л</text><text class="cls-1" transform="matrix(0, -0.99, 1, 0, 64.82, 200.03)">О</text><text class="cls-1" transform="matrix(0.12, -0.98, 0.99, 0.12, 64.84, 184.09)">Х</text><text class="cls-1" transform="matrix(0.24, -0.96, 0.97, 0.24, 66.55, 169.67)">О</text><text class="cls-1" transform="matrix(0.33, -0.93, 0.94, 0.34, 70.7, 153.81)"> </text><text class="cls-1" transform="matrix(0.37, -0.92, 0.93, 0.38, 72.85, 147.71)"> </text><text class="cls-1" transform="matrix(0.42, -0.89, 0.91, 0.42, 75.29, 141.68)"> </text><text class="cls-1" transform="matrix(0.49, -0.86, 0.87, 0.5, 77.8, 135.86)">В</text><text class="cls-1" transform="matrix(0.59, -0.79, 0.8, 0.6, 85.12, 123.05)">С</text><text class="cls-1" transform="matrix(0.68, -0.72, 0.73, 0.69, 94.36, 110.76)">Ё</text><text class="cls-1" transform="matrix(0.73, -0.66, 0.67, 0.74, 103.8, 100.97)"> </text><text class="cls-1" transform="matrix(0.79, -0.59, 0.6, 0.8, 108.28, 96.58)">П</text><text class="cls-1" transform="matrix(0.86, -0.48, 0.49, 0.87, 121.71, 86.5)">Л</text><text class="cls-1" transform="matrix(0.91, -0.37, 0.38, 0.93, 136.18, 78.36)">О</text><text class="cls-1" transform="matrix(0.95, -0.26, 0.26, 0.96, 150.98, 72.37)">Х</text><text class="cls-1" transform="matrix(0.98, -0.15, 0.15, 0.99, 165.01, 68.46)">О</text><text class="cls-1" transform="matrix(0.99, -0.06, 0.06, 1, 181.29, 66.25)"> </text><text class="cls-1" transform="matrix(0.99, -0.01, 0.01, 1, 187.74, 65.87)"> </text><text class="cls-1" transform="matrix(0.99, 0.04, -0.04, 1, 194.2, 65.8)"> </text><text class="cls-1" transform="matrix(0.98, 0.12, -0.12, 0.99, 200.55, 65.88)">В</text><text class="cls-1" transform="matrix(0.96, 0.23, -0.24, 0.97, 215.2, 67.67)">С</text><text class="cls-1" transform="matrix(0.93, 0.34, -0.34, 0.94, 230.16, 71.35)">Ё</text><text class="cls-1" transform="matrix(0.9, 0.41, -0.41, 0.91, 242.93, 76.13)"> </text><text class="cls-1" transform="matrix(0.88, 0.45, -0.46, 0.89, 248.84, 78.8)"> </text><text class="cls-1" transform="matrix(0.85, 0.49, -0.5, 0.87, 254.61, 81.76)"> </text><text class="cls-1" transform="matrix(0.81, 0.57, -0.58, 0.82, 260.17, 84.69)">П</text><text class="cls-1" transform="matrix(0.73, 0.67, -0.68, 0.74, 273.88, 94.33)">Л</text><text class="cls-1" transform="matrix(0.64, 0.75, -0.76, 0.64, 286.15, 105.61)">О</text><text class="cls-1" transform="matrix(0.54, 0.82, -0.84, 0.55, 296.41, 117.81)">Х</text><text class="cls-1" transform="matrix(0.44, 0.88, -0.89, 0.45, 304.49, 129.96)">О</text><text class="cls-1" transform="matrix(0.36, 0.92, -0.93, 0.37, 311.61, 144.71)"> </text><text class="cls-1" transform="matrix(0.31, 0.94, -0.95, 0.32, 313.97, 150.73)"> </text><text class="cls-1" transform="matrix(0.27, 0.95, -0.96, 0.27, 316.05, 156.9)"> </text><text class="cls-1" transform="matrix(0.19, 0.97, -0.98, 0.19, 317.93, 162.94)">В</text><text class="cls-1" transform="matrix(0.07, 0.98, -1, 0.07, 320.74, 177.44)">С</text><text class="cls-1" transform="matrix(-0.04, 0.99, -1, -0.05, 321.76, 192.73)">Ё</text><text class="cls-1" transform="matrix(-0.12, 0.98, -0.99, -0.13, 321, 206.33)"> </text><text class="cls-1" transform="matrix(-0.17, 0.97, -0.98, -0.18, 320.18, 212.73)"> </text><text class="cls-1" transform="matrix(-0.22, 0.96, -0.97, -0.23, 319.03, 219.13)"> </text><text class="cls-1" transform="matrix(-0.3, 0.94, -0.95, -0.31, 317.75, 225.32)">П</text><text class="cls-1" transform="matrix(-0.43, 0.89, -0.9, -0.44, 312.59, 241.21)">Л</text><text class="cls-1" transform="matrix(-0.54, 0.82, -0.83, -0.55, 305.33, 256.16)">О</text><text class="cls-1" transform="matrix(-0.64, 0.75, -0.76, -0.65, 296.53, 269.47)">Х</text><text class="cls-1" transform="matrix(-0.73, 0.67, -0.68, -0.74, 287.15, 280.6)">О</text><text class="cls-1" transform="matrix(-0.78, 0.6, -0.61, -0.79, 274.95, 291.52)"> </text><text class="cls-1" transform="matrix(-0.81, 0.56, -0.57, -0.82, 269.78, 295.48)"> </text><text class="cls-1" transform="matrix(-0.84, 0.52, -0.52, -0.85, 264.45, 299.15)"> </text><text class="cls-1" transform="matrix(-0.88, 0.45, -0.45, -0.89, 259.15, 302.63)">В</text><text class="cls-1" transform="matrix(-0.93, 0.34, -0.35, -0.94, 245.99, 309.34)">С</text><text class="cls-1" transform="matrix(-0.96, 0.24, -0.24, -0.97, 231.58, 314.6)">Ё</text><text class="cls-1" transform="matrix(-0.97, 0.16, -0.16, -0.99, 218.31, 317.72)"> </text><text class="cls-1" transform="matrix(-0.98, 0.11, -0.11, -0.99, 211.89, 318.77)"> </text><text class="cls-1" transform="matrix(-0.99, 0.06, -0.06, -1, 205.45, 319.5)"> </text><text class="cls-1" transform="matrix(-0.99, -0.03, 0.03, -1, 199.2, 320.14)">П</text><text class="cls-1" transform="matrix(-0.98, -0.15, 0.16, -0.99, 182.45, 319.69)">Л</text><text class="cls-1" transform="matrix(-0.95, -0.27, 0.28, -0.96, 166.01, 317.09)">О</text><text class="cls-1" transform="matrix(-0.91, -0.38, 0.39, -0.92, 150.67, 312.63)">Х</text><text class="cls-1" transform="matrix(-0.86, -0.49, 0.49, -0.87, 137.2, 307.05)">О</text></g></g></svg>