<svg width="299" height="363" viewBox="0 0 299 363" fill="none" xmlns="http://www.w3.org/2000/svg">
<path d="M271.064 238.214C275.689 236.202 276.895 234.19 276.292 229.159C275.89 226.543 275.488 224.129 275.086 221.714C274.482 217.69 275.488 214.068 278.504 211.452C281.52 208.836 284.737 206.421 287.954 204.208C289.563 203.001 291.574 202.196 293.383 201.19C298.611 198.372 300.22 193.543 297.807 187.909C296.198 184.488 293.987 181.068 291.574 178.251C286.547 172.415 281.319 166.982 276.091 161.348C272.27 157.324 270.059 152.494 269.053 147.263C267.042 138.208 266.841 128.952 268.048 119.897C269.858 106.616 267.646 93.9395 263.423 81.2627C255.179 57.72 241.305 38.0005 221.197 22.9091C204.307 10.2322 185.607 2.98832 164.896 0.97613C132.925 -2.04216 101.959 1.78101 72.4009 14.6591C52.6955 23.3115 35.604 35.5859 22.333 52.4883C6.04583 73.0127 -1.39399 96.3542 0.214622 122.513C0.81785 132.372 1.22 142.031 2.42646 151.891C4.63829 167.787 8.86089 183.08 13.2846 198.574C20.5233 223.525 29.1696 248.074 39.0223 272.22C39.8266 274.232 40.4298 276.244 40.0277 278.458C37.8158 290.933 35.8051 303.208 33.5932 315.683C32.7889 320.11 31.7836 324.738 30.7782 329.165C29.9739 332.586 30.1749 332.787 33.3922 334.598C43.446 340.433 53.7008 345.464 64.5589 349.488C81.0472 355.927 98.1386 359.952 115.833 361.763C121.061 362.366 126.49 362.568 131.919 362.769C138.555 362.97 145.391 362.769 152.027 362.97C162.282 363.171 172.135 361.36 182.188 359.751C185.003 359.348 185.607 358.342 185.205 355.525C182.993 338.824 188.02 323.732 196.063 309.446C198.476 305.019 202.095 302.403 207.323 301.598C211.747 300.994 215.969 300.19 220.393 299.787C228.838 298.982 237.283 298.379 245.929 297.574C249.348 297.171 252.967 296.366 256.184 295.36C264.831 292.744 268.249 286.507 265.836 278.055C265.032 274.836 263.624 271.818 262.016 269.001C260.608 266.586 260.809 264.171 262.418 262.36C264.227 260.348 266.037 257.933 268.45 256.726C275.89 252.702 275.086 246.061 270.863 241.232C270.461 240.629 270.059 240.025 269.254 239.22C270.059 238.818 270.662 238.415 271.064 238.214Z" fill="black"/>
</svg>
