<svg width="843" height="593" viewBox="0 0 843 593" fill="none" xmlns="http://www.w3.org/2000/svg">
<g clip-path="url(#clip0)">
<path d="M0 0V592.7H842.9V0H0ZM492.1 307.6C491.2 308.1 490.2 308.5 489.4 309.1C487.8 310.2 486.1 311.4 484.7 312.7C483.2 314 482.7 315.8 483 317.8C483.2 319 483.4 320.3 483.6 321.5C483.9 324 483.3 325 481 326C480.7 326.1 480.5 326.3 480.1 326.5C480.5 326.9 480.7 327.2 480.9 327.5C483 329.8 483.4 333.2 479.7 335.2C478.5 335.8 477.6 337 476.7 338C475.9 339 475.8 340.1 476.5 341.3C477.3 342.7 478 344.2 478.4 345.8C479.6 350.1 477.8 353.1 473.6 354.4C471.9 354.9 470.2 355.3 468.5 355.5C464.3 356 460.1 356.2 455.8 356.6C453.6 356.8 451.5 357.2 449.3 357.5C446.8 357.9 445 359.2 443.7 361.4C439.7 368.5 437.2 376 438.3 384.3C438.5 385.7 438.2 386.2 436.8 386.4C431.8 387.1 426.9 388.1 421.8 388C418.5 387.9 415.1 388 411.8 387.9C409.1 387.8 406.5 387.7 403.8 387.4C395 386.5 386.5 384.4 378.3 381.3C372.9 379.2 367.8 376.8 362.8 373.9C361.2 373 361.2 372.9 361.5 371.2C362 369 362.5 366.7 362.9 364.5C364 358.3 365 352.2 366.1 346C366.3 344.9 366.1 343.9 365.6 342.9C360.7 330.9 356.4 318.7 352.8 306.3C350.6 298.7 348.5 291 347.5 283.1C346.9 278.3 346.7 273.4 346.4 268.5C345.5 255.5 349.2 243.9 357.3 233.7C364 225.3 372.4 219.2 382.2 214.9C396.9 208.5 412.3 206.6 428.2 208.1C438.5 209.1 447.8 212.7 456.1 218.9C466.1 226.4 473 236.2 477.1 247.9C479.3 254.1 480.3 260.4 479.4 267.1C478.8 271.6 478.9 276.2 479.9 280.7C480.5 283.3 481.6 285.7 483.4 287.7C486 290.5 488.6 293.2 491.1 296.1C492.3 297.6 493.5 299.2 494.2 300.9C495.5 303.8 494.7 306.2 492.1 307.6Z" fill="#BED8FF"/>
</g>
<defs>
<clipPath id="clip0">
<rect width="842.9" height="592.7" fill="white"/>
</clipPath>
</defs>
</svg>
