<svg width="421" height="246" viewBox="0 0 421 246" fill="none" xmlns="http://www.w3.org/2000/svg">
<g clip-path="url(#clip0)">
<path d="M210.37 0C184.194 0 163.077 21.1171 163.077 47.2934C163.077 53.0127 164.067 58.4019 165.937 63.4612C170.886 58.8419 176.495 54.9924 186.064 54.9924C209.051 54.9924 209.051 77.5393 232.037 77.5393C241.826 77.5393 247.435 73.4698 252.385 68.7405C255.684 62.3614 257.554 54.9924 257.554 47.2934C257.554 21.1171 236.437 0 210.37 0Z" fill="#E7F2FE"/>
<path d="M210.37 94.4768C228.738 94.4768 244.686 83.9183 252.494 68.6304C247.545 73.3598 241.826 77.4292 232.147 77.4292C209.16 77.4292 209.16 54.8823 186.174 54.8823C176.605 54.8823 170.996 58.8418 166.046 63.3511C172.535 81.4986 189.913 94.4768 210.37 94.4768Z" fill="#074BB0"/>
<path d="M165.937 63.3512C170.886 58.7318 176.495 54.8823 186.064 54.8823C209.051 54.8823 209.051 77.4292 232.037 77.4292C241.826 77.4292 247.435 73.3598 252.385 68.6304C255.684 62.2513 257.554 54.8823 257.554 47.1834C257.554 37.5047 254.694 28.486 249.635 21.007C246.665 16.7176 241.276 11.5483 230.608 11.5483C205.311 11.6583 205.971 34.3152 183.974 34.3152C176.055 34.3152 170.336 29.9158 167.146 27.9361C167.146 27.9361 167.146 27.9361 167.146 28.0461C164.507 33.8752 163.077 40.3643 163.077 47.2934C163.077 52.9026 164.067 58.4018 165.937 63.3512Z" fill="#95C4F7"/>
</g>
<path d="M144.761 160.576C142.489 160.576 140.441 160.224 138.617 159.52C136.793 158.784 135.241 157.712 133.961 156.304C132.681 154.864 131.689 153.088 130.985 150.976C130.281 148.832 129.929 146.336 129.929 143.488C129.929 140.672 130.281 138.176 130.985 136C131.689 133.792 132.681 131.952 133.961 130.48C135.241 128.976 136.793 127.84 138.617 127.072C140.441 126.304 142.489 125.92 144.761 125.92C147.865 125.92 150.425 126.56 152.441 127.84C154.457 129.088 156.073 131.072 157.289 133.792L151.001 137.056C150.553 135.648 149.849 134.528 148.889 133.696C147.961 132.832 146.585 132.4 144.761 132.4C142.617 132.4 140.889 133.104 139.577 134.512C138.297 135.888 137.657 137.904 137.657 140.56V145.936C137.657 148.592 138.297 150.624 139.577 152.032C140.889 153.408 142.617 154.096 144.761 154.096C146.553 154.096 147.977 153.616 149.033 152.656C150.121 151.664 150.921 150.48 151.433 149.104L157.385 152.56C156.137 155.12 154.489 157.104 152.441 158.512C150.425 159.888 147.865 160.576 144.761 160.576ZM176.326 157.792H174.358C172.246 157.792 170.31 157.424 168.55 156.688C166.79 155.952 165.27 154.944 163.99 153.664C162.742 152.352 161.766 150.816 161.062 149.056C160.358 147.296 160.006 145.392 160.006 143.344C160.006 141.296 160.342 139.392 161.014 137.632C161.718 135.872 162.694 134.336 163.942 133.024C165.19 131.712 166.694 130.688 168.454 129.952C170.214 129.184 172.182 128.8 174.358 128.8H176.326V124.48H183.718V128.8H185.686C187.862 128.8 189.83 129.184 191.59 129.952C193.35 130.688 194.854 131.712 196.102 133.024C197.35 134.336 198.31 135.872 198.982 137.632C199.686 139.392 200.038 141.296 200.038 143.344C200.038 145.392 199.686 147.296 198.982 149.056C198.278 150.816 197.286 152.352 196.006 153.664C194.758 154.944 193.254 155.952 191.494 156.688C189.734 157.424 187.798 157.792 185.686 157.792H183.718V162.112H176.326V157.792ZM176.47 151.792V134.8H174.358C173.142 134.8 172.102 134.992 171.238 135.376C170.374 135.728 169.67 136.224 169.126 136.864C168.582 137.472 168.166 138.208 167.878 139.072C167.622 139.904 167.494 140.816 167.494 141.808V144.784C167.494 146.8 168.054 148.48 169.174 149.824C170.326 151.136 172.054 151.792 174.358 151.792H176.47ZM185.686 151.792C187.99 151.792 189.702 151.136 190.822 149.824C191.974 148.48 192.55 146.8 192.55 144.784V141.808C192.55 140.816 192.406 139.904 192.118 139.072C191.862 138.208 191.462 137.472 190.918 136.864C190.374 136.224 189.654 135.728 188.758 135.376C187.894 134.992 186.87 134.8 185.686 134.8H183.574V151.792H185.686ZM205.428 160V126.496H228.228V132.976H212.724V139.84H226.02V146.272H212.724V153.52H228.228V160H205.428ZM234.584 160V126.496H250.424C251.992 126.496 253.4 126.768 254.648 127.312C255.896 127.824 256.952 128.544 257.816 129.472C258.712 130.4 259.4 131.536 259.88 132.88C260.36 134.192 260.6 135.632 260.6 137.2C260.6 138.8 260.36 140.256 259.88 141.568C259.4 142.88 258.712 144 257.816 144.928C256.952 145.856 255.896 146.592 254.648 147.136C253.4 147.648 251.992 147.904 250.424 147.904H241.88V160H234.584ZM241.88 141.568H249.56C250.648 141.568 251.496 141.296 252.104 140.752C252.744 140.176 253.064 139.344 253.064 138.256V136.144C253.064 135.056 252.744 134.24 252.104 133.696C251.496 133.12 250.648 132.832 249.56 132.832H241.88V141.568ZM283.209 160L280.809 152.032H269.625L267.225 160H259.833L270.873 126.496H279.897L290.793 160H283.209ZM275.289 133.12H275.049L271.353 145.84H279.033L275.289 133.12Z" fill="#3C3C3B"/>
<path d="M46.63 229.69H41.392V235H39.016V222.436H41.392V227.584H46.63V222.436H49.006V235H46.63V229.69ZM59.7295 235L58.7215 231.796H54.2575L53.2675 235H50.8555L55.0675 222.436H58.0195L62.1955 235H59.7295ZM56.5255 224.596H56.4355L54.8335 229.762H58.1455L56.5255 224.596ZM73.1792 235.216C72.3512 235.216 71.6012 235.084 70.9292 234.82C70.2692 234.544 69.6992 234.136 69.2192 233.596C68.7512 233.056 68.3912 232.39 68.1392 231.598C67.8872 230.794 67.7612 229.864 67.7612 228.808C67.7612 227.752 67.8872 226.816 68.1392 226C68.3912 225.172 68.7512 224.482 69.2192 223.93C69.6992 223.366 70.2692 222.94 70.9292 222.652C71.6012 222.364 72.3512 222.22 73.1792 222.22C74.3072 222.22 75.2432 222.46 75.9872 222.94C76.7312 223.42 77.3252 224.146 77.7692 225.118L75.7352 226.198C75.5552 225.634 75.2612 225.184 74.8532 224.848C74.4452 224.5 73.8872 224.326 73.1792 224.326C72.2912 224.326 71.5832 224.626 71.0552 225.226C70.5392 225.826 70.2812 226.666 70.2812 227.746V229.726C70.2812 230.818 70.5392 231.658 71.0552 232.246C71.5832 232.822 72.2912 233.11 73.1792 233.11C73.8872 233.11 74.4632 232.918 74.9072 232.534C75.3632 232.15 75.6932 231.676 75.8972 231.112L77.8232 232.246C77.3672 233.182 76.7612 233.914 76.0052 234.442C75.2492 234.958 74.3072 235.216 73.1792 235.216ZM84.7644 224.542V235H82.3884V224.542H78.8244V222.436H88.3284V224.542H84.7644ZM90.2739 235V222.436H95.9259C96.5019 222.436 97.0179 222.532 97.4739 222.724C97.9419 222.904 98.3379 223.168 98.6619 223.516C98.9859 223.852 99.2319 224.26 99.3999 224.74C99.5679 225.22 99.6519 225.748 99.6519 226.324C99.6519 226.912 99.5679 227.446 99.3999 227.926C99.2319 228.394 98.9859 228.802 98.6619 229.15C98.3379 229.486 97.9419 229.75 97.4739 229.942C97.0179 230.122 96.5019 230.212 95.9259 230.212H92.6499V235H90.2739ZM92.6499 228.16H95.7099C96.1659 228.16 96.5259 228.04 96.7899 227.8C97.0539 227.548 97.1859 227.194 97.1859 226.738V225.91C97.1859 225.454 97.0539 225.106 96.7899 224.866C96.5259 224.626 96.1659 224.506 95.7099 224.506H92.6499V228.16ZM108.403 235L107.395 231.796H102.931L101.941 235H99.5294L103.741 222.436H106.693L110.869 235H108.403ZM105.199 224.596H105.109L103.507 229.762H106.819L105.199 224.596ZM111.983 232.894H113.099L114.665 229.69C114.833 229.342 115.019 229.09 115.223 228.934C115.439 228.766 115.697 228.652 115.997 228.592V228.484C115.721 228.412 115.481 228.292 115.277 228.124C115.073 227.944 114.887 227.674 114.719 227.314L113.405 224.542H112.289V222.436H113.333C113.825 222.436 114.245 222.55 114.593 222.778C114.941 223.006 115.235 223.372 115.475 223.876L117.239 227.584H119.039V222.436H121.415V227.584H123.215L124.997 223.876C125.237 223.372 125.525 223.006 125.861 222.778C126.209 222.55 126.629 222.436 127.121 222.436H128.165V224.542H127.049L125.717 227.314C125.549 227.674 125.363 227.944 125.159 228.124C124.967 228.292 124.733 228.412 124.457 228.484V228.592C124.757 228.652 125.015 228.766 125.231 228.934C125.447 229.09 125.639 229.342 125.807 229.69L127.355 232.894H128.471V235H127.121C126.665 235 126.281 234.898 125.969 234.694C125.657 234.49 125.363 234.1 125.087 233.524L123.215 229.654H121.415V235H119.039V229.654H117.239L115.349 233.524C115.073 234.1 114.779 234.49 114.467 234.694C114.167 234.898 113.789 235 113.333 235H111.983V232.894ZM130.686 235V222.436H138.966V224.542H133.062V227.584H138.282V229.69H133.062V232.894H138.966V235H130.686ZM145.733 222.436H151.547C152.063 222.436 152.525 222.514 152.933 222.67C153.353 222.826 153.707 223.042 153.995 223.318C154.283 223.594 154.499 223.936 154.643 224.344C154.799 224.74 154.877 225.178 154.877 225.658C154.877 226.138 154.811 226.546 154.679 226.882C154.559 227.206 154.391 227.476 154.175 227.692C153.971 227.908 153.731 228.07 153.455 228.178C153.191 228.286 152.915 228.346 152.627 228.358V228.466C152.903 228.466 153.197 228.52 153.509 228.628C153.833 228.736 154.127 228.91 154.391 229.15C154.667 229.378 154.895 229.678 155.075 230.05C155.255 230.41 155.345 230.86 155.345 231.4C155.345 231.904 155.261 232.378 155.093 232.822C154.937 233.254 154.715 233.632 154.427 233.956C154.139 234.28 153.797 234.538 153.401 234.73C153.005 234.91 152.573 235 152.105 235H145.733V222.436ZM148.109 232.984H151.421C151.877 232.984 152.231 232.87 152.483 232.642C152.735 232.402 152.861 232.06 152.861 231.616V231.004C152.861 230.56 152.735 230.218 152.483 229.978C152.231 229.738 151.877 229.618 151.421 229.618H148.109V232.984ZM148.109 227.674H151.043C151.475 227.674 151.811 227.56 152.051 227.332C152.291 227.092 152.411 226.762 152.411 226.342V225.784C152.411 225.364 152.291 225.04 152.051 224.812C151.811 224.572 151.475 224.452 151.043 224.452H148.109V227.674ZM165.198 235L164.19 231.796H159.726L158.736 235H156.324L160.536 222.436H163.488L167.664 235H165.198ZM161.994 224.596H161.904L160.302 229.762H163.614L161.994 224.596ZM169.516 222.436H171.892V232.894H175.924V222.436H178.3V232.894H182.332V222.436H184.708V235H169.516V222.436ZM187.657 235V222.436H195.937V224.542H190.033V227.584H195.253V229.69H190.033V232.894H195.937V235H187.657ZM198.45 222.436H200.754V229.096L200.52 231.706H200.574L201.816 229.348L206.316 222.436H208.44V235H206.136V228.34L206.37 225.73H206.316L205.074 228.07L200.574 235H198.45V222.436ZM203.454 221.536C202.698 221.536 202.092 221.38 201.636 221.068C201.18 220.744 200.82 220.288 200.556 219.7L200.178 218.854L202.014 218.134L202.608 219.862C202.704 219.898 202.83 219.928 202.986 219.952C203.142 219.964 203.298 219.97 203.454 219.97C203.61 219.97 203.766 219.964 203.922 219.952C204.078 219.928 204.204 219.898 204.3 219.862L204.894 218.134L206.73 218.854L206.352 219.7C206.088 220.288 205.728 220.744 205.272 221.068C204.816 221.38 204.21 221.536 203.454 221.536ZM215.641 222.436H225.361V235H222.985V224.542H218.017V235H215.641V222.436ZM228.315 235V222.436H233.967C234.543 222.436 235.059 222.532 235.515 222.724C235.983 222.904 236.379 223.168 236.703 223.516C237.027 223.852 237.273 224.26 237.441 224.74C237.609 225.22 237.693 225.748 237.693 226.324C237.693 226.912 237.609 227.446 237.441 227.926C237.273 228.394 237.027 228.802 236.703 229.15C236.379 229.486 235.983 229.75 235.515 229.942C235.059 230.122 234.543 230.212 233.967 230.212H230.691V235H228.315ZM230.691 228.16H233.751C234.207 228.16 234.567 228.04 234.831 227.8C235.095 227.548 235.227 227.194 235.227 226.738V225.91C235.227 225.454 235.095 225.106 234.831 224.866C234.567 224.626 234.207 224.506 233.751 224.506H230.691V228.16ZM244.778 235.216C243.95 235.216 243.2 235.078 242.528 234.802C241.856 234.526 241.28 234.112 240.8 233.56C240.332 233.008 239.966 232.33 239.702 231.526C239.438 230.722 239.306 229.786 239.306 228.718C239.306 227.662 239.438 226.732 239.702 225.928C239.966 225.112 240.332 224.428 240.8 223.876C241.28 223.324 241.856 222.91 242.528 222.634C243.2 222.358 243.95 222.22 244.778 222.22C245.606 222.22 246.356 222.358 247.028 222.634C247.7 222.91 248.276 223.324 248.756 223.876C249.236 224.428 249.602 225.112 249.854 225.928C250.118 226.732 250.25 227.662 250.25 228.718C250.25 229.786 250.118 230.722 249.854 231.526C249.602 232.33 249.236 233.008 248.756 233.56C248.276 234.112 247.7 234.526 247.028 234.802C246.356 235.078 245.606 235.216 244.778 235.216ZM244.778 233.11C245.678 233.11 246.392 232.81 246.92 232.21C247.46 231.61 247.73 230.77 247.73 229.69V227.746C247.73 226.666 247.46 225.826 246.92 225.226C246.392 224.626 245.678 224.326 244.778 224.326C243.878 224.326 243.158 224.626 242.618 225.226C242.09 225.826 241.826 226.666 241.826 227.746V229.69C241.826 230.77 242.09 231.61 242.618 232.21C243.158 232.81 243.878 233.11 244.778 233.11ZM250.962 232.894H252.312C252.54 232.642 252.744 232.336 252.924 231.976C253.116 231.616 253.278 231.178 253.41 230.662C253.542 230.134 253.644 229.516 253.716 228.808C253.8 228.1 253.842 227.278 253.842 226.342V222.436H262.428V232.894H264.372V237.7H262.14V235H253.194V237.7H250.962V232.894ZM260.052 232.894V224.542H256.146V226.648C256.146 227.512 256.116 228.274 256.056 228.934C256.008 229.582 255.936 230.152 255.84 230.644C255.744 231.136 255.624 231.562 255.48 231.922C255.348 232.27 255.192 232.57 255.012 232.822V232.894H260.052ZM266.514 232.894H268.602L268.962 231.976L264.498 222.436H267.018L269.07 226.882L270.078 229.276H270.132L271.014 226.846L272.778 222.436H275.136L270.708 233.29C270.576 233.614 270.432 233.884 270.276 234.1C270.12 234.316 269.94 234.496 269.736 234.64C269.532 234.772 269.292 234.868 269.016 234.928C268.752 234.976 268.44 235 268.08 235H266.514V232.894ZM276.883 222.436H279.259V227.584H281.257L283.309 223.876C283.585 223.372 283.885 223.006 284.209 222.778C284.533 222.55 284.941 222.436 285.433 222.436H286.459V224.542H285.343L283.777 227.368C283.585 227.704 283.393 227.956 283.201 228.124C283.021 228.28 282.799 228.4 282.535 228.484V228.592C282.835 228.652 283.087 228.772 283.291 228.952C283.507 229.12 283.717 229.384 283.921 229.744L285.649 232.894H286.765V235H285.433C284.977 235 284.599 234.898 284.299 234.694C283.999 234.478 283.699 234.1 283.399 233.56L281.257 229.654H279.259V235H276.883V222.436ZM293.891 224.542V235H291.515V224.542H287.951V222.436H297.455V224.542H293.891ZM299.401 222.436H301.705V229.096L301.471 231.706H301.525L302.767 229.348L307.267 222.436H309.391V235H307.087V228.34L307.321 225.73H307.267L306.025 228.07L301.525 235H299.401V222.436ZM312.338 222.436H318.152C318.668 222.436 319.13 222.514 319.538 222.67C319.958 222.826 320.312 223.042 320.6 223.318C320.888 223.594 321.104 223.936 321.248 224.344C321.404 224.74 321.482 225.178 321.482 225.658C321.482 226.138 321.416 226.546 321.284 226.882C321.164 227.206 320.996 227.476 320.78 227.692C320.576 227.908 320.336 228.07 320.06 228.178C319.796 228.286 319.52 228.346 319.232 228.358V228.466C319.508 228.466 319.802 228.52 320.114 228.628C320.438 228.736 320.732 228.91 320.996 229.15C321.272 229.378 321.5 229.678 321.68 230.05C321.86 230.41 321.95 230.86 321.95 231.4C321.95 231.904 321.866 232.378 321.698 232.822C321.542 233.254 321.32 233.632 321.032 233.956C320.744 234.28 320.402 234.538 320.006 234.73C319.61 234.91 319.178 235 318.71 235H312.338V222.436ZM314.714 232.984H318.026C318.482 232.984 318.836 232.87 319.088 232.642C319.34 232.402 319.466 232.06 319.466 231.616V231.004C319.466 230.56 319.34 230.218 319.088 229.978C318.836 229.738 318.482 229.618 318.026 229.618H314.714V232.984ZM314.714 227.674H317.648C318.08 227.674 318.416 227.56 318.656 227.332C318.896 227.092 319.016 226.762 319.016 226.342V225.784C319.016 225.364 318.896 225.04 318.656 224.812C318.416 224.572 318.08 224.452 317.648 224.452H314.714V227.674ZM331.888 229.69H326.65V235H324.274V222.436H326.65V227.584H331.888V222.436H334.264V235H331.888V229.69ZM342.143 235.216C341.315 235.216 340.565 235.078 339.893 234.802C339.221 234.526 338.645 234.112 338.165 233.56C337.697 233.008 337.331 232.33 337.067 231.526C336.803 230.722 336.671 229.786 336.671 228.718C336.671 227.662 336.803 226.732 337.067 225.928C337.331 225.112 337.697 224.428 338.165 223.876C338.645 223.324 339.221 222.91 339.893 222.634C340.565 222.358 341.315 222.22 342.143 222.22C342.971 222.22 343.721 222.358 344.393 222.634C345.065 222.91 345.641 223.324 346.121 223.876C346.601 224.428 346.967 225.112 347.219 225.928C347.483 226.732 347.615 227.662 347.615 228.718C347.615 229.786 347.483 230.722 347.219 231.526C346.967 232.33 346.601 233.008 346.121 233.56C345.641 234.112 345.065 234.526 344.393 234.802C343.721 235.078 342.971 235.216 342.143 235.216ZM342.143 233.11C343.043 233.11 343.757 232.81 344.285 232.21C344.825 231.61 345.095 230.77 345.095 229.69V227.746C345.095 226.666 344.825 225.826 344.285 225.226C343.757 224.626 343.043 224.326 342.143 224.326C341.243 224.326 340.523 224.626 339.983 225.226C339.455 225.826 339.191 226.666 339.191 227.746V229.69C339.191 230.77 339.455 231.61 339.983 232.21C340.523 232.81 341.243 233.11 342.143 233.11ZM354.904 235.216C354.076 235.216 353.326 235.084 352.654 234.82C351.994 234.544 351.424 234.136 350.944 233.596C350.476 233.056 350.116 232.39 349.864 231.598C349.612 230.794 349.486 229.864 349.486 228.808C349.486 227.752 349.612 226.816 349.864 226C350.116 225.172 350.476 224.482 350.944 223.93C351.424 223.366 351.994 222.94 352.654 222.652C353.326 222.364 354.076 222.22 354.904 222.22C356.032 222.22 356.968 222.46 357.712 222.94C358.456 223.42 359.05 224.146 359.494 225.118L357.46 226.198C357.28 225.634 356.986 225.184 356.578 224.848C356.17 224.5 355.612 224.326 354.904 224.326C354.016 224.326 353.308 224.626 352.78 225.226C352.264 225.826 352.006 226.666 352.006 227.746V229.726C352.006 230.818 352.264 231.658 352.78 232.246C353.308 232.822 354.016 233.11 354.904 233.11C355.612 233.11 356.188 232.918 356.632 232.534C357.088 232.15 357.418 231.676 357.622 231.112L359.548 232.246C359.092 233.182 358.486 233.914 357.73 234.442C356.974 234.958 356.032 235.216 354.904 235.216ZM366.489 224.542V235H364.113V224.542H360.549V222.436H370.053V224.542H366.489ZM371.998 222.436H374.302V229.096L374.068 231.706H374.122L375.364 229.348L379.864 222.436H381.988V235H379.684V228.34L379.918 225.73H379.864L378.622 228.07L374.122 235H371.998V222.436Z" fill="#C0C0C0"/>
<defs>
<clipPath id="clip0">
<rect x="163.077" width="94.4769" height="94.4769" fill="white"/>
</clipPath>
</defs>
</svg>
