<svg width="303" height="303" viewBox="0 0 303 303" fill="none" xmlns="http://www.w3.org/2000/svg">
<g clip-path="url(#clip0)">
<path d="M151.676 0C67.7253 0 0 67.7253 0 151.676C0 170.019 3.17462 187.303 9.17113 203.529C25.0442 188.714 43.0338 176.368 73.7218 176.368C147.444 176.368 147.444 248.679 221.165 248.679C252.559 248.679 270.548 235.627 286.421 220.46C297.003 200.001 303 176.368 303 151.676C303 67.7253 235.275 0 151.676 0Z" fill="#E7F2FE"/>
<path d="M151.676 303C210.583 303 261.73 269.137 286.774 220.107C270.901 235.274 252.559 248.326 221.518 248.326C147.796 248.326 147.796 176.015 74.0743 176.015C43.3863 176.015 25.3968 188.713 9.52368 203.176C30.3351 261.377 86.0673 303 151.676 303Z" fill="#074BB0"/>
<path d="M9.17113 203.176C25.0442 188.361 43.0338 176.015 73.7218 176.015C147.444 176.015 147.444 248.326 221.165 248.326C252.559 248.326 270.548 235.275 286.421 220.107C297.003 199.649 303 176.015 303 151.324C303 120.283 293.829 91.3587 277.603 67.3726C268.079 53.6159 250.795 37.0374 216.58 37.0374C135.451 37.3901 137.567 110.054 67.0198 110.054C41.6228 110.054 23.2806 95.9442 13.0512 89.595C13.0512 89.595 13.0512 89.595 13.0512 89.9477C4.58556 108.643 0 129.454 0 151.676C0 169.666 3.17462 187.303 9.17113 203.176Z" fill="#78B9FF"/>
</g>
<defs>
<clipPath id="clip0">
<rect width="303" height="303" fill="white"/>
</clipPath>
</defs>
</svg>
