<svg width="171" height="176" viewBox="0 0 171 176" fill="none" xmlns="http://www.w3.org/2000/svg">
<g clip-path="url(#clip0)">
<path d="M86.3704 0C60.194 0 39.0769 21.1171 39.0769 47.2934C39.0769 53.0127 40.0668 58.4019 41.9365 63.4612C46.8858 58.8419 52.495 54.9924 62.0637 54.9924C85.0505 54.9924 85.0505 77.5393 108.037 77.5393C117.826 77.5393 123.435 73.4698 128.385 68.7405C131.684 62.3614 133.554 54.9924 133.554 47.2934C133.554 21.1171 112.437 0 86.3704 0Z" fill="#E7F2FE"/>
<path d="M86.3703 94.4768C104.738 94.4768 120.686 83.9183 128.494 68.6304C123.545 73.3598 117.826 77.4292 108.147 77.4292C85.1604 77.4292 85.1604 54.8823 62.1736 54.8823C52.6049 54.8823 46.9957 58.8418 42.0464 63.3511C48.5355 81.4986 65.9131 94.4768 86.3703 94.4768Z" fill="#074BB0"/>
<path d="M41.9365 63.3512C46.8858 58.7318 52.495 54.8823 62.0637 54.8823C85.0505 54.8823 85.0505 77.4292 108.037 77.4292C117.826 77.4292 123.435 73.3598 128.385 68.6304C131.684 62.2513 133.554 54.8823 133.554 47.1834C133.554 37.5047 130.694 28.486 125.635 21.007C122.665 16.7176 117.276 11.5483 106.608 11.5483C81.3111 11.6583 81.971 34.3152 59.974 34.3152C52.0551 34.3152 46.3359 29.9158 43.1463 27.9361C43.1463 27.9361 43.1463 27.9361 43.1463 28.0461C40.5067 33.8752 39.0769 40.3643 39.0769 47.2934C39.0769 52.9026 40.0668 58.4018 41.9365 63.3512Z" fill="#95C4F7"/>
</g>
<path d="M20.761 160.576C18.489 160.576 16.441 160.224 14.617 159.52C12.793 158.784 11.241 157.712 9.96103 156.304C8.68103 154.864 7.68903 153.088 6.98503 150.976C6.28103 148.832 5.92903 146.336 5.92903 143.488C5.92903 140.672 6.28103 138.176 6.98503 136C7.68903 133.792 8.68103 131.952 9.96103 130.48C11.241 128.976 12.793 127.84 14.617 127.072C16.441 126.304 18.489 125.92 20.761 125.92C23.865 125.92 26.425 126.56 28.441 127.84C30.457 129.088 32.073 131.072 33.289 133.792L27.001 137.056C26.553 135.648 25.849 134.528 24.889 133.696C23.961 132.832 22.585 132.4 20.761 132.4C18.617 132.4 16.889 133.104 15.577 134.512C14.297 135.888 13.657 137.904 13.657 140.56V145.936C13.657 148.592 14.297 150.624 15.577 152.032C16.889 153.408 18.617 154.096 20.761 154.096C22.553 154.096 23.977 153.616 25.033 152.656C26.121 151.664 26.921 150.48 27.433 149.104L33.385 152.56C32.137 155.12 30.489 157.104 28.441 158.512C26.425 159.888 23.865 160.576 20.761 160.576ZM52.3259 157.792H50.3579C48.2459 157.792 46.3099 157.424 44.5499 156.688C42.7899 155.952 41.2699 154.944 39.9899 153.664C38.7419 152.352 37.7659 150.816 37.0619 149.056C36.3579 147.296 36.0059 145.392 36.0059 143.344C36.0059 141.296 36.3419 139.392 37.0139 137.632C37.7179 135.872 38.6939 134.336 39.9419 133.024C41.1899 131.712 42.6939 130.688 44.4539 129.952C46.2139 129.184 48.1819 128.8 50.3579 128.8H52.3259V124.48H59.7179V128.8H61.6859C63.8619 128.8 65.8299 129.184 67.5899 129.952C69.3499 130.688 70.8539 131.712 72.1019 133.024C73.3499 134.336 74.3099 135.872 74.9819 137.632C75.6859 139.392 76.0379 141.296 76.0379 143.344C76.0379 145.392 75.6859 147.296 74.9819 149.056C74.2779 150.816 73.2859 152.352 72.0059 153.664C70.7579 154.944 69.2539 155.952 67.4939 156.688C65.7339 157.424 63.7979 157.792 61.6859 157.792H59.7179V162.112H52.3259V157.792ZM52.4699 151.792V134.8H50.3579C49.1419 134.8 48.1019 134.992 47.2379 135.376C46.3739 135.728 45.6699 136.224 45.1259 136.864C44.5819 137.472 44.1659 138.208 43.8779 139.072C43.6219 139.904 43.4939 140.816 43.4939 141.808V144.784C43.4939 146.8 44.0539 148.48 45.1739 149.824C46.3259 151.136 48.0539 151.792 50.3579 151.792H52.4699ZM61.6859 151.792C63.9899 151.792 65.7019 151.136 66.8219 149.824C67.9739 148.48 68.5499 146.8 68.5499 144.784V141.808C68.5499 140.816 68.4059 139.904 68.1179 139.072C67.8619 138.208 67.4619 137.472 66.9179 136.864C66.3739 136.224 65.6539 135.728 64.7579 135.376C63.8939 134.992 62.8699 134.8 61.6859 134.8H59.5739V151.792H61.6859ZM81.4282 160V126.496H104.228V132.976H88.7242V139.84H102.02V146.272H88.7242V153.52H104.228V160H81.4282ZM110.584 160V126.496H126.424C127.992 126.496 129.4 126.768 130.648 127.312C131.896 127.824 132.952 128.544 133.816 129.472C134.712 130.4 135.4 131.536 135.88 132.88C136.36 134.192 136.6 135.632 136.6 137.2C136.6 138.8 136.36 140.256 135.88 141.568C135.4 142.88 134.712 144 133.816 144.928C132.952 145.856 131.896 146.592 130.648 147.136C129.4 147.648 127.992 147.904 126.424 147.904H117.88V160H110.584ZM117.88 141.568H125.56C126.648 141.568 127.496 141.296 128.104 140.752C128.744 140.176 129.064 139.344 129.064 138.256V136.144C129.064 135.056 128.744 134.24 128.104 133.696C127.496 133.12 126.648 132.832 125.56 132.832H117.88V141.568ZM159.209 160L156.809 152.032H145.625L143.225 160H135.833L146.873 126.496H155.897L166.793 160H159.209ZM151.289 133.12H151.049L147.353 145.84H155.033L151.289 133.12Z" fill="#3C3C3B"/>
<defs>
<clipPath id="clip0">
<rect x="39.0769" width="94.4769" height="94.4769" fill="white"/>
</clipPath>
</defs>
</svg>
