<svg width="421" height="29" viewBox="0 0 421 29" fill="none" xmlns="http://www.w3.org/2000/svg">
<path d="M46.63 12.69H41.392V18H39.016V5.436H41.392V10.584H46.63V5.436H49.006V18H46.63V12.69ZM59.7295 18L58.7215 14.796H54.2575L53.2675 18H50.8555L55.0675 5.436H58.0195L62.1955 18H59.7295ZM56.5255 7.596H56.4355L54.8335 12.762H58.1455L56.5255 7.596ZM73.1792 18.216C72.3512 18.216 71.6012 18.084 70.9292 17.82C70.2692 17.544 69.6992 17.136 69.2192 16.596C68.7512 16.056 68.3912 15.39 68.1392 14.598C67.8872 13.794 67.7612 12.864 67.7612 11.808C67.7612 10.752 67.8872 9.816 68.1392 9C68.3912 8.172 68.7512 7.482 69.2192 6.93C69.6992 6.366 70.2692 5.94 70.9292 5.652C71.6012 5.364 72.3512 5.22 73.1792 5.22C74.3072 5.22 75.2432 5.46 75.9872 5.94C76.7312 6.42 77.3252 7.146 77.7692 8.118L75.7352 9.198C75.5552 8.634 75.2612 8.184 74.8532 7.848C74.4452 7.5 73.8872 7.326 73.1792 7.326C72.2912 7.326 71.5832 7.626 71.0552 8.226C70.5392 8.826 70.2812 9.666 70.2812 10.746V12.726C70.2812 13.818 70.5392 14.658 71.0552 15.246C71.5832 15.822 72.2912 16.11 73.1792 16.11C73.8872 16.11 74.4632 15.918 74.9072 15.534C75.3632 15.15 75.6932 14.676 75.8972 14.112L77.8232 15.246C77.3672 16.182 76.7612 16.914 76.0052 17.442C75.2492 17.958 74.3072 18.216 73.1792 18.216ZM84.7644 7.542V18H82.3884V7.542H78.8244V5.436H88.3284V7.542H84.7644ZM90.2739 18V5.436H95.9259C96.5019 5.436 97.0179 5.532 97.4739 5.724C97.9419 5.904 98.3379 6.168 98.6619 6.516C98.9859 6.852 99.2319 7.26 99.3999 7.74C99.5679 8.22 99.6519 8.748 99.6519 9.324C99.6519 9.912 99.5679 10.446 99.3999 10.926C99.2319 11.394 98.9859 11.802 98.6619 12.15C98.3379 12.486 97.9419 12.75 97.4739 12.942C97.0179 13.122 96.5019 13.212 95.9259 13.212H92.6499V18H90.2739ZM92.6499 11.16H95.7099C96.1659 11.16 96.5259 11.04 96.7899 10.8C97.0539 10.548 97.1859 10.194 97.1859 9.738V8.91C97.1859 8.454 97.0539 8.106 96.7899 7.866C96.5259 7.626 96.1659 7.506 95.7099 7.506H92.6499V11.16ZM108.403 18L107.395 14.796H102.931L101.941 18H99.5294L103.741 5.436H106.693L110.869 18H108.403ZM105.199 7.596H105.109L103.507 12.762H106.819L105.199 7.596ZM111.983 15.894H113.099L114.665 12.69C114.833 12.342 115.019 12.09 115.223 11.934C115.439 11.766 115.697 11.652 115.997 11.592V11.484C115.721 11.412 115.481 11.292 115.277 11.124C115.073 10.944 114.887 10.674 114.719 10.314L113.405 7.542H112.289V5.436H113.333C113.825 5.436 114.245 5.55 114.593 5.778C114.941 6.006 115.235 6.372 115.475 6.876L117.239 10.584H119.039V5.436H121.415V10.584H123.215L124.997 6.876C125.237 6.372 125.525 6.006 125.861 5.778C126.209 5.55 126.629 5.436 127.121 5.436H128.165V7.542H127.049L125.717 10.314C125.549 10.674 125.363 10.944 125.159 11.124C124.967 11.292 124.733 11.412 124.457 11.484V11.592C124.757 11.652 125.015 11.766 125.231 11.934C125.447 12.09 125.639 12.342 125.807 12.69L127.355 15.894H128.471V18H127.121C126.665 18 126.281 17.898 125.969 17.694C125.657 17.49 125.363 17.1 125.087 16.524L123.215 12.654H121.415V18H119.039V12.654H117.239L115.349 16.524C115.073 17.1 114.779 17.49 114.467 17.694C114.167 17.898 113.789 18 113.333 18H111.983V15.894ZM130.686 18V5.436H138.966V7.542H133.062V10.584H138.282V12.69H133.062V15.894H138.966V18H130.686ZM145.733 5.436H151.547C152.063 5.436 152.525 5.514 152.933 5.67C153.353 5.826 153.707 6.042 153.995 6.318C154.283 6.594 154.499 6.936 154.643 7.344C154.799 7.74 154.877 8.178 154.877 8.658C154.877 9.138 154.811 9.546 154.679 9.882C154.559 10.206 154.391 10.476 154.175 10.692C153.971 10.908 153.731 11.07 153.455 11.178C153.191 11.286 152.915 11.346 152.627 11.358V11.466C152.903 11.466 153.197 11.52 153.509 11.628C153.833 11.736 154.127 11.91 154.391 12.15C154.667 12.378 154.895 12.678 155.075 13.05C155.255 13.41 155.345 13.86 155.345 14.4C155.345 14.904 155.261 15.378 155.093 15.822C154.937 16.254 154.715 16.632 154.427 16.956C154.139 17.28 153.797 17.538 153.401 17.73C153.005 17.91 152.573 18 152.105 18H145.733V5.436ZM148.109 15.984H151.421C151.877 15.984 152.231 15.87 152.483 15.642C152.735 15.402 152.861 15.06 152.861 14.616V14.004C152.861 13.56 152.735 13.218 152.483 12.978C152.231 12.738 151.877 12.618 151.421 12.618H148.109V15.984ZM148.109 10.674H151.043C151.475 10.674 151.811 10.56 152.051 10.332C152.291 10.092 152.411 9.762 152.411 9.342V8.784C152.411 8.364 152.291 8.04 152.051 7.812C151.811 7.572 151.475 7.452 151.043 7.452H148.109V10.674ZM165.198 18L164.19 14.796H159.726L158.736 18H156.324L160.536 5.436H163.488L167.664 18H165.198ZM161.994 7.596H161.904L160.302 12.762H163.614L161.994 7.596ZM169.516 5.436H171.892V15.894H175.924V5.436H178.3V15.894H182.332V5.436H184.708V18H169.516V5.436ZM187.657 18V5.436H195.937V7.542H190.033V10.584H195.253V12.69H190.033V15.894H195.937V18H187.657ZM198.45 5.436H200.754V12.096L200.52 14.706H200.574L201.816 12.348L206.316 5.436H208.44V18H206.136V11.34L206.37 8.73H206.316L205.074 11.07L200.574 18H198.45V5.436ZM203.454 4.536C202.698 4.536 202.092 4.38 201.636 4.068C201.18 3.744 200.82 3.288 200.556 2.7L200.178 1.854L202.014 1.134L202.608 2.862C202.704 2.898 202.83 2.928 202.986 2.952C203.142 2.964 203.298 2.97 203.454 2.97C203.61 2.97 203.766 2.964 203.922 2.952C204.078 2.928 204.204 2.898 204.3 2.862L204.894 1.134L206.73 1.854L206.352 2.7C206.088 3.288 205.728 3.744 205.272 4.068C204.816 4.38 204.21 4.536 203.454 4.536ZM215.641 5.436H225.361V18H222.985V7.542H218.017V18H215.641V5.436ZM228.315 18V5.436H233.967C234.543 5.436 235.059 5.532 235.515 5.724C235.983 5.904 236.379 6.168 236.703 6.516C237.027 6.852 237.273 7.26 237.441 7.74C237.609 8.22 237.693 8.748 237.693 9.324C237.693 9.912 237.609 10.446 237.441 10.926C237.273 11.394 237.027 11.802 236.703 12.15C236.379 12.486 235.983 12.75 235.515 12.942C235.059 13.122 234.543 13.212 233.967 13.212H230.691V18H228.315ZM230.691 11.16H233.751C234.207 11.16 234.567 11.04 234.831 10.8C235.095 10.548 235.227 10.194 235.227 9.738V8.91C235.227 8.454 235.095 8.106 234.831 7.866C234.567 7.626 234.207 7.506 233.751 7.506H230.691V11.16ZM244.778 18.216C243.95 18.216 243.2 18.078 242.528 17.802C241.856 17.526 241.28 17.112 240.8 16.56C240.332 16.008 239.966 15.33 239.702 14.526C239.438 13.722 239.306 12.786 239.306 11.718C239.306 10.662 239.438 9.732 239.702 8.928C239.966 8.112 240.332 7.428 240.8 6.876C241.28 6.324 241.856 5.91 242.528 5.634C243.2 5.358 243.95 5.22 244.778 5.22C245.606 5.22 246.356 5.358 247.028 5.634C247.7 5.91 248.276 6.324 248.756 6.876C249.236 7.428 249.602 8.112 249.854 8.928C250.118 9.732 250.25 10.662 250.25 11.718C250.25 12.786 250.118 13.722 249.854 14.526C249.602 15.33 249.236 16.008 248.756 16.56C248.276 17.112 247.7 17.526 247.028 17.802C246.356 18.078 245.606 18.216 244.778 18.216ZM244.778 16.11C245.678 16.11 246.392 15.81 246.92 15.21C247.46 14.61 247.73 13.77 247.73 12.69V10.746C247.73 9.666 247.46 8.826 246.92 8.226C246.392 7.626 245.678 7.326 244.778 7.326C243.878 7.326 243.158 7.626 242.618 8.226C242.09 8.826 241.826 9.666 241.826 10.746V12.69C241.826 13.77 242.09 14.61 242.618 15.21C243.158 15.81 243.878 16.11 244.778 16.11ZM250.962 15.894H252.312C252.54 15.642 252.744 15.336 252.924 14.976C253.116 14.616 253.278 14.178 253.41 13.662C253.542 13.134 253.644 12.516 253.716 11.808C253.8 11.1 253.842 10.278 253.842 9.342V5.436H262.428V15.894H264.372V20.7H262.14V18H253.194V20.7H250.962V15.894ZM260.052 15.894V7.542H256.146V9.648C256.146 10.512 256.116 11.274 256.056 11.934C256.008 12.582 255.936 13.152 255.84 13.644C255.744 14.136 255.624 14.562 255.48 14.922C255.348 15.27 255.192 15.57 255.012 15.822V15.894H260.052ZM266.514 15.894H268.602L268.962 14.976L264.498 5.436H267.018L269.07 9.882L270.078 12.276H270.132L271.014 9.846L272.778 5.436H275.136L270.708 16.29C270.576 16.614 270.432 16.884 270.276 17.1C270.12 17.316 269.94 17.496 269.736 17.64C269.532 17.772 269.292 17.868 269.016 17.928C268.752 17.976 268.44 18 268.08 18H266.514V15.894ZM276.883 5.436H279.259V10.584H281.257L283.309 6.876C283.585 6.372 283.885 6.006 284.209 5.778C284.533 5.55 284.941 5.436 285.433 5.436H286.459V7.542H285.343L283.777 10.368C283.585 10.704 283.393 10.956 283.201 11.124C283.021 11.28 282.799 11.4 282.535 11.484V11.592C282.835 11.652 283.087 11.772 283.291 11.952C283.507 12.12 283.717 12.384 283.921 12.744L285.649 15.894H286.765V18H285.433C284.977 18 284.599 17.898 284.299 17.694C283.999 17.478 283.699 17.1 283.399 16.56L281.257 12.654H279.259V18H276.883V5.436ZM293.891 7.542V18H291.515V7.542H287.951V5.436H297.455V7.542H293.891ZM299.401 5.436H301.705V12.096L301.471 14.706H301.525L302.767 12.348L307.267 5.436H309.391V18H307.087V11.34L307.321 8.73H307.267L306.025 11.07L301.525 18H299.401V5.436ZM312.338 5.436H318.152C318.668 5.436 319.13 5.514 319.538 5.67C319.958 5.826 320.312 6.042 320.6 6.318C320.888 6.594 321.104 6.936 321.248 7.344C321.404 7.74 321.482 8.178 321.482 8.658C321.482 9.138 321.416 9.546 321.284 9.882C321.164 10.206 320.996 10.476 320.78 10.692C320.576 10.908 320.336 11.07 320.06 11.178C319.796 11.286 319.52 11.346 319.232 11.358V11.466C319.508 11.466 319.802 11.52 320.114 11.628C320.438 11.736 320.732 11.91 320.996 12.15C321.272 12.378 321.5 12.678 321.68 13.05C321.86 13.41 321.95 13.86 321.95 14.4C321.95 14.904 321.866 15.378 321.698 15.822C321.542 16.254 321.32 16.632 321.032 16.956C320.744 17.28 320.402 17.538 320.006 17.73C319.61 17.91 319.178 18 318.71 18H312.338V5.436ZM314.714 15.984H318.026C318.482 15.984 318.836 15.87 319.088 15.642C319.34 15.402 319.466 15.06 319.466 14.616V14.004C319.466 13.56 319.34 13.218 319.088 12.978C318.836 12.738 318.482 12.618 318.026 12.618H314.714V15.984ZM314.714 10.674H317.648C318.08 10.674 318.416 10.56 318.656 10.332C318.896 10.092 319.016 9.762 319.016 9.342V8.784C319.016 8.364 318.896 8.04 318.656 7.812C318.416 7.572 318.08 7.452 317.648 7.452H314.714V10.674ZM331.888 12.69H326.65V18H324.274V5.436H326.65V10.584H331.888V5.436H334.264V18H331.888V12.69ZM342.143 18.216C341.315 18.216 340.565 18.078 339.893 17.802C339.221 17.526 338.645 17.112 338.165 16.56C337.697 16.008 337.331 15.33 337.067 14.526C336.803 13.722 336.671 12.786 336.671 11.718C336.671 10.662 336.803 9.732 337.067 8.928C337.331 8.112 337.697 7.428 338.165 6.876C338.645 6.324 339.221 5.91 339.893 5.634C340.565 5.358 341.315 5.22 342.143 5.22C342.971 5.22 343.721 5.358 344.393 5.634C345.065 5.91 345.641 6.324 346.121 6.876C346.601 7.428 346.967 8.112 347.219 8.928C347.483 9.732 347.615 10.662 347.615 11.718C347.615 12.786 347.483 13.722 347.219 14.526C346.967 15.33 346.601 16.008 346.121 16.56C345.641 17.112 345.065 17.526 344.393 17.802C343.721 18.078 342.971 18.216 342.143 18.216ZM342.143 16.11C343.043 16.11 343.757 15.81 344.285 15.21C344.825 14.61 345.095 13.77 345.095 12.69V10.746C345.095 9.666 344.825 8.826 344.285 8.226C343.757 7.626 343.043 7.326 342.143 7.326C341.243 7.326 340.523 7.626 339.983 8.226C339.455 8.826 339.191 9.666 339.191 10.746V12.69C339.191 13.77 339.455 14.61 339.983 15.21C340.523 15.81 341.243 16.11 342.143 16.11ZM354.904 18.216C354.076 18.216 353.326 18.084 352.654 17.82C351.994 17.544 351.424 17.136 350.944 16.596C350.476 16.056 350.116 15.39 349.864 14.598C349.612 13.794 349.486 12.864 349.486 11.808C349.486 10.752 349.612 9.816 349.864 9C350.116 8.172 350.476 7.482 350.944 6.93C351.424 6.366 351.994 5.94 352.654 5.652C353.326 5.364 354.076 5.22 354.904 5.22C356.032 5.22 356.968 5.46 357.712 5.94C358.456 6.42 359.05 7.146 359.494 8.118L357.46 9.198C357.28 8.634 356.986 8.184 356.578 7.848C356.17 7.5 355.612 7.326 354.904 7.326C354.016 7.326 353.308 7.626 352.78 8.226C352.264 8.826 352.006 9.666 352.006 10.746V12.726C352.006 13.818 352.264 14.658 352.78 15.246C353.308 15.822 354.016 16.11 354.904 16.11C355.612 16.11 356.188 15.918 356.632 15.534C357.088 15.15 357.418 14.676 357.622 14.112L359.548 15.246C359.092 16.182 358.486 16.914 357.73 17.442C356.974 17.958 356.032 18.216 354.904 18.216ZM366.489 7.542V18H364.113V7.542H360.549V5.436H370.053V7.542H366.489ZM371.998 5.436H374.302V12.096L374.068 14.706H374.122L375.364 12.348L379.864 5.436H381.988V18H379.684V11.34L379.918 8.73H379.864L378.622 11.07L374.122 18H371.998V5.436Z" fill="#C0C0C0"/>
</svg>
