<svg xmlns="http://www.w3.org/2000/svg" viewBox="0 0 286.93 157.17"><defs><style>.cls-1{fill:#0026aa;}</style></defs><title>wave1</title><g id="Layer_2" data-name="Layer 2"><g id="Layer_1-2" data-name="Layer 1"><path class="cls-1" d="M280.66,155.25C260.61,165.24,254,133,231.89,133s-22.1,23.29-44.21,23.29S165.58,133,143.47,133s-22.1,23.29-44.21,23.29S77.16,133,55.05,133s-28.72,32.2-48.77,22.21c-9.3-4.64,15.39-21.58,15.39-32.6S0,111.64,0,100.63s21.67-11,21.67-22S0,67.58,0,56.56s21.67-11,21.67-22S-3,6.56,6.28,1.92c20-10,26.66,22.21,48.76,22.21S77.15.84,99.25.84s22.11,23.29,44.21,23.29S165.56.84,187.67.84s22.11,23.29,44.21,23.29S260.6-8.07,280.66,1.92c9.3,4.64-15.4,21.58-15.4,32.6s21.67,11,21.67,22-21.67,11-21.67,22,21.67,11,21.67,22-24.14,14.8-21.22,25.36C270.42,142.94,290,150.61,280.66,155.25Z"/></g></g></svg>