<svg width="1722" height="979" viewBox="0 0 1722 979" fill="none" xmlns="http://www.w3.org/2000/svg">
<path d="M1710.86 973.803C1669.01 997.204 1648.83 933.993 1599.75 933.993C1550.37 933.993 1550.37 977.031 1501.29 977.031C1451.91 977.031 1451.91 933.993 1402.83 933.993C1353.45 933.993 1353.45 977.031 1304.37 977.031C1254.99 977.031 1254.99 933.993 1205.91 933.993C1156.53 933.993 1156.53 977.031 1107.45 977.031C1058.07 977.031 1058.07 933.993 1008.99 933.993C959.611 933.993 959.611 977.031 910.531 977.031C861.15 977.031 861.15 933.993 812.071 933.993C762.991 933.993 762.991 977.031 713.611 977.031C664.23 977.031 664.23 933.993 615.15 933.993C565.77 933.993 565.77 977.031 516.69 977.031C467.31 977.031 467.31 933.993 418.23 933.993C368.849 933.993 368.849 977.031 319.77 977.031C270.389 977.031 270.389 933.993 221.31 933.993C171.929 933.993 171.929 977.031 122.849 977.031C73.7699 977.031 78.8886 960.623 37.0355 937.221C10.8397 922.965 0 928.345 0 900.909C0 873.472 48.1763 873.472 48.1763 846.036C48.1763 818.6 0 818.6 0 791.164C0 763.728 48.1763 763.728 48.1763 736.291C48.1763 708.855 0 708.855 0 681.419C0 653.983 48.1763 653.983 48.1763 626.547C48.1763 599.11 0 599.11 0 571.674C0 544.238 48.1763 544.238 48.1763 516.802C48.1763 489.635 0 489.635 0 462.198C0 434.762 48.1763 434.762 48.1763 407.326C48.1763 379.89 0 379.89 0 352.454C0 325.017 48.1763 325.017 48.1763 297.581C48.1763 270.145 0 270.145 0 242.709C0 215.272 48.1763 215.273 48.1763 187.836C48.1763 160.669 0 160.669 0 133.233C0 105.797 48.1763 105.797 48.1763 78.3605C48.1763 50.9243 -14.754 19.7223 11.4419 5.19729C53.295 -18.2042 73.4688 45.0067 122.548 45.0067C171.929 45.0067 171.929 1.9695 221.009 1.9695C270.389 1.9695 270.389 45.0067 319.469 45.0067C368.849 45.0067 368.849 1.9695 417.929 1.9695C467.31 1.9695 467.31 45.0067 516.389 45.0067C565.77 45.0067 565.77 1.9695 614.849 1.9695C664.23 1.9695 664.23 45.0067 713.31 45.0067C762.69 45.0067 762.69 1.9695 811.77 1.9695C861.151 1.9695 861.15 45.0067 910.23 45.0067C959.31 45.0067 959.31 1.9695 1008.69 1.9695C1058.07 1.9695 1058.07 45.0067 1107.15 45.0067C1156.53 45.0067 1156.53 1.9695 1205.61 1.9695C1254.99 1.9695 1254.99 45.0067 1304.07 45.0067C1353.45 45.0067 1353.45 1.9695 1402.53 1.9695C1451.91 1.9695 1451.91 45.0067 1500.99 45.0067C1550.37 45.0067 1550.37 1.9695 1599.45 1.9695C1648.83 1.9695 1643.41 18.3774 1685.27 41.7789C1711.16 56.3039 1722 50.9243 1722 78.3605C1722 105.797 1673.82 105.797 1673.82 133.233C1673.82 160.669 1722 160.669 1722 188.105C1722 215.541 1673.82 215.542 1673.82 242.978C1673.82 270.414 1722 270.414 1722 297.85C1722 325.286 1673.82 325.286 1673.82 352.723C1673.82 380.159 1722 380.159 1722 407.595C1722 435.031 1673.82 435.031 1673.82 462.467C1673.82 489.903 1722 489.904 1722 517.34C1722 544.776 1673.82 544.776 1673.82 572.212C1673.82 599.648 1722 599.648 1722 627.085C1722 654.521 1673.82 654.521 1673.82 681.957C1673.82 709.393 1722 709.393 1722 736.829C1722 764.265 1673.82 764.265 1673.82 791.702C1673.82 819.138 1722 819.138 1722 846.574C1722 874.01 1666 881.542 1674.73 907.633C1687.98 945.022 1736.75 959.278 1710.86 973.803Z" fill="#0441B9"/>
</svg>
