<svg width="1723" height="979" viewBox="0 0 1723 979" fill="none" xmlns="http://www.w3.org/2000/svg">
<path d="M1711.55 973.621C1669.68 997.02 1649.5 933.815 1600.4 933.815C1551 933.815 1551 976.848 1501.9 976.848C1452.5 976.848 1452.5 933.815 1403.4 933.815C1354 933.815 1354 976.848 1304.9 976.848C1255.5 976.848 1255.5 933.815 1206.4 933.815C1157 933.815 1157 976.848 1107.9 976.848C1058.5 976.848 1058.5 933.815 1009.4 933.815C960 933.815 960 976.848 910.901 976.848C861.5 976.848 861.5 933.815 812.401 933.815C763.301 933.815 763.301 976.848 713.9 976.848C664.5 976.848 664.5 933.815 615.4 933.815C566 933.815 566 976.848 516.9 976.848C467.499 976.848 467.499 933.815 418.4 933.815C368.999 933.815 368.999 976.848 319.9 976.848C270.499 976.848 270.499 933.815 221.399 933.815C171.999 933.815 171.999 976.848 122.899 976.848C73.7998 976.848 78.9206 960.442 37.0505 937.043C10.8441 922.788 0 928.167 0 900.734C0 873.3 48.1958 873.3 48.1958 845.867C48.1958 818.433 0 818.433 0 791C0 763.566 48.1958 763.566 48.1958 736.133C48.1958 708.699 0 708.699 0 681.266C0 653.832 48.1958 653.832 48.1958 626.399C48.1958 598.965 0 598.965 0 571.532C0 544.098 48.1958 544.098 48.1958 516.665C48.1958 489.5 0 489.5 0 462.066C0 434.633 48.1958 434.633 48.1958 407.199C48.1958 379.766 0 379.766 0 352.332C0 324.899 48.1958 324.899 48.1958 297.465C48.1958 270.032 0 270.032 0 242.598C0 215.165 48.1958 215.165 48.1958 187.731C48.1958 160.567 0 160.567 0 133.133C0 105.7 48.1958 105.7 48.1958 78.2662C48.1958 50.8326 -14.76 19.6337 11.4465 5.11011C53.3166 -18.2891 73.4986 44.9156 122.598 44.9156C171.999 44.9156 171.999 1.88264 221.098 1.88264C270.499 1.88264 270.499 44.9156 319.598 44.9156C368.999 44.9156 368.999 1.88264 418.099 1.88264C467.499 1.88264 467.499 44.9156 516.599 44.9156C566 44.9156 566 1.88264 615.099 1.88264C664.5 1.88264 664.5 44.9156 713.599 44.9156C763 44.9156 763 1.88264 812.099 1.88264C861.5 1.88264 861.5 44.9156 910.6 44.9156C959.699 44.9156 959.699 1.88264 1009.1 1.88264C1058.5 1.88264 1058.5 44.9156 1107.6 44.9156C1157 44.9156 1157 1.88264 1206.1 1.88264C1255.5 1.88264 1255.5 44.9156 1304.6 44.9156C1354 44.9156 1354 1.88264 1403.1 1.88264C1452.5 1.88264 1452.5 44.9156 1501.6 44.9156C1551 44.9156 1551 1.88264 1600.1 1.88264C1649.5 1.88264 1644.08 18.289 1685.95 41.6881C1711.85 56.2118 1722.7 50.8326 1722.7 78.2662C1722.7 105.7 1674.5 105.7 1674.5 133.133C1674.5 160.567 1722.7 160.567 1722.7 188C1722.7 215.434 1674.5 215.434 1674.5 242.867C1674.5 270.301 1722.7 270.301 1722.7 297.734C1722.7 325.168 1674.5 325.168 1674.5 352.601C1674.5 380.035 1722.7 380.035 1722.7 407.468C1722.7 434.902 1674.5 434.902 1674.5 462.335C1674.5 489.769 1722.7 489.769 1722.7 517.202C1722.7 544.636 1674.5 544.636 1674.5 572.07C1674.5 599.503 1722.7 599.503 1722.7 626.937C1722.7 654.37 1674.5 654.37 1674.5 681.804C1674.5 709.237 1722.7 709.237 1722.7 736.671C1722.7 764.104 1674.5 764.104 1674.5 791.538C1674.5 818.971 1722.7 818.971 1722.7 846.405C1722.7 873.838 1666.67 881.369 1675.41 907.458C1688.66 944.843 1737.46 959.097 1711.55 973.621Z" fill="#4786FF"/>
</svg>
